<?xml version="1.0" standalone="no"?>
<!DOCTYPE svg PUBLIC "-//W3C//DTD SVG 20010904//EN"
 "http://www.w3.org/TR/2001/REC-SVG-20010904/DTD/svg10.dtd">
<svg version="1.0" xmlns="http://www.w3.org/2000/svg"
 width="512.000000pt" height="512.000000pt" viewBox="0 0 512.000000 512.000000"
 preserveAspectRatio="xMidYMid meet">
<metadata>
Created by potrace 1.11, written by Peter Selinger 2001-2013
</metadata>
<g transform="translate(0.000000,512.000000) scale(0.100000,-0.100000)"
fill="#000000" stroke="none">
<path d="M2952 5053 c-18 -32 -44 -79 -60 -105 -15 -25 -45 -77 -66 -115 -22
-37 -65 -112 -98 -166 -32 -54 -58 -101 -58 -105 0 -5 -5 -13 -12 -20 -7 -7
-26 -37 -43 -67 -16 -30 -61 -107 -99 -172 -38 -65 -240 -410 -449 -768 -208
-357 -403 -690 -432 -740 -56 -95 -425 -728 -455 -780 -111 -192 -376 -646
-389 -665 -10 -14 -32 -52 -51 -85 -18 -33 -53 -93 -78 -134 -24 -41 -52 -88
-61 -105 -10 -17 -105 -179 -211 -361 -106 -181 -202 -346 -213 -365 -10 -19
-50 -88 -88 -152 -38 -65 -72 -124 -75 -133 -6 -14 53 -15 561 -13 l567 3 45
74 c25 40 55 92 68 115 13 22 170 293 350 601 475 812 1125 1925 1145 1960 10
17 38 65 64 108 25 43 46 82 46 87 0 6 5 10 10 10 6 0 10 4 10 10 0 5 58 107
128 227 71 120 210 358 309 528 99 171 190 326 202 345 50 83 63 49 -169 440
-79 132 -280 478 -302 520 -33 60 -47 80 -57 80 -3 0 -21 -26 -39 -57z"/>
<path d="M3455 2488 c-58 -100 -111 -190 -116 -198 -5 -8 -43 -73 -84 -145
-41 -71 -79 -137 -85 -145 -33 -53 -126 -217 -128 -227 -2 -7 -8 -13 -13 -13
-5 0 -9 -4 -9 -9 0 -5 -84 -152 -186 -327 -519 -887 -779 -1332 -796 -1364
-11 -19 -25 -41 -30 -47 -8 -10 91 -13 491 -13 l501 0 13 23 c8 12 110 186
227 387 116 201 216 372 221 380 105 177 101 172 113 153 7 -10 52 -85 100
-168 48 -82 91 -157 96 -165 36 -60 279 -476 304 -521 17 -30 36 -63 41 -72
10 -16 49 -17 508 -15 l496 3 -164 280 c-90 154 -172 296 -183 315 -11 19
-151 260 -312 535 -161 275 -302 516 -312 535 -11 19 -43 73 -71 120 -27 47
-58 99 -67 115 -10 17 -95 163 -190 325 -95 162 -181 311 -192 330 -11 19 -30
52 -43 73 l-23 39 -107 -184z"/>
</g>
</svg>
